<?xml version="1.0" encoding="UTF-8"?>
<svg id="Layer_2" xmlns="http://www.w3.org/2000/svg" viewBox="0 0 432.12 129.66">
  <defs>
    <style>
      .cls-1 {
        fill: #fff;
      }
    </style>
  </defs>
  <g id="Layer_3">
    <g>
      <path class="cls-1" d="M2.51,44.04h3.96V11.78h-3.96v-3.35h39.85v3.35h-3.96v32.26h3.96v3.35h-15.74v-3.35h3.96V12.06H14.29v31.98h3.96v3.35H2.51v-3.35Z"/>
      <path class="cls-1" d="M47.39,44.04h3.96V11.78h-3.96v-3.35h30.42v10.1h-5.75v-6.47h-12.89v13.28h8.48v-3.68h3.85v11h-3.85v-3.68h-8.48v14.79h13.34v-7.37h5.75v11h-30.87v-3.35Z"/>
      <path class="cls-1" d="M83.78,44.04h3.96V11.78h-3.96v-3.35h20.54c3.94,0,6.9.89,8.88,2.68,1.97,1.79,2.96,4.43,2.96,7.93s-1.06,6.22-3.18,8.18c-2.12,1.95-5.13,2.93-9.04,2.93h-8.37v13.9h5.3v3.35h-17.08v-3.35ZM95.55,26.46h6.47c1.93,0,3.43-.5,4.49-1.51,1.06-1,1.59-2.44,1.59-4.3v-2.79c0-1.86-.53-3.29-1.59-4.3-1.06-1-2.56-1.51-4.49-1.51h-6.47v14.4Z"/>
      <path class="cls-1" d="M120.9,44.04h3.96V11.78h-3.96v-3.35h30.42v10.1h-5.75v-6.47h-12.89v13.28h8.48v-3.68h3.85v11h-3.85v-3.68h-8.48v14.79h13.34v-7.37h5.75v11h-30.87v-3.35Z"/>
      <path class="cls-1" d="M155.22,43.7h4.47c2.27-2.94,4.06-6.76,5.36-11.47,1.3-4.71,1.95-10.24,1.95-16.6v-3.85h-4.58v-3.35h29.81v3.35h-3.96v31.93h5.97v12.61h-6.2v-8.93h-26.62v8.93h-6.2v-12.61ZM180.45,43.76V12.06h-9.27v3.79c0,2.9-.15,5.71-.45,8.43-.3,2.72-.75,5.27-1.34,7.65-.6,2.38-1.31,4.58-2.15,6.59-.84,2.01-1.78,3.76-2.82,5.25h16.02Z"/>
      <path class="cls-1" d="M198.2,44.04h3.96V11.78h-3.96v-3.35h19.7c2.05,0,3.84.23,5.39.7,1.54.47,2.82,1.1,3.82,1.9,1,.8,1.76,1.76,2.26,2.88.5,1.12.75,2.34.75,3.68s-.22,2.59-.67,3.63c-.45,1.04-1.05,1.94-1.81,2.68s-1.63,1.35-2.59,1.81c-.97.47-1.97.81-3.01,1.03v.28c1.08.11,2.2.38,3.35.81,1.15.43,2.19,1.03,3.12,1.81.93.78,1.69,1.75,2.29,2.9.59,1.15.89,2.49.89,4.02,0,3.42-1.07,6.08-3.21,7.98-2.14,1.9-5.24,2.85-9.29,2.85h-20.99v-3.35ZM209.98,25.56h6.25c1.93,0,3.4-.47,4.38-1.42.99-.95,1.48-2.32,1.48-4.1v-2.46c0-1.79-.49-3.15-1.48-4.1-.99-.95-2.45-1.42-4.38-1.42h-6.25v13.51ZM209.98,43.76h7.2c2.08,0,3.68-.53,4.8-1.59s1.67-2.54,1.67-4.44v-2.51c0-1.9-.56-3.38-1.67-4.44s-2.72-1.59-4.8-1.59h-7.2v14.57Z"/>
      <path class="cls-1" d="M236.93,44.04h3.96V11.78h-3.96v-3.35h15.57v3.35h-3.96v15.24l-.56,9.99h.22l17.14-24v-1.23h-3.96v-3.35h15.57v3.35h-3.96v32.26h3.96v3.35h-15.57v-3.35h3.96v-15.24l.56-9.99h-.22l-17.14,24v1.23h3.96v3.35h-15.57v-3.35Z"/>
      <path class="cls-1" d="M281.98,44.04h3.96V11.78h-3.96v-3.35h15.74v3.35h-3.96v13.84h16.3v-13.84h-3.96v-3.35h15.74v3.35h-3.96v32.26h3.96v3.35h-15.74v-3.35h3.96v-14.79h-16.3v14.79h3.96v3.35h-15.74v-3.35Z"/>
      <path class="cls-1" d="M326.85,44.04h3.96V11.78h-3.96v-3.35h15.8v3.35h-4.02v12.06h7.59c4.32,0,7.51,1,9.57,2.99,2.07,1.99,3.1,4.85,3.1,8.57,0,3.98-1.08,6.98-3.24,8.99-2.16,2.01-5.3,3.01-9.43,3.01h-19.37v-3.35ZM344.49,43.76c2.01,0,3.57-.54,4.69-1.62,1.12-1.08,1.67-2.68,1.67-4.8v-3.46c0-2.12-.56-3.72-1.67-4.8-1.12-1.08-2.68-1.62-4.69-1.62h-5.86v16.3h5.86Z"/>
      <path class="cls-1" d="M367.21,44.04h5.3V12.06h-8.04v6.47h-5.75v-10.1h35.33v10.1h-5.75v-6.47h-8.04v31.98h5.3v3.35h-18.36v-3.35Z"/>
      <path class="cls-1" d="M398.24,44.04h3.96V11.78h-3.96v-3.35h30.42v10.1h-5.75v-6.47h-12.89v13.28h8.48v-3.68h3.85v11h-3.85v-3.68h-8.48v14.79h13.34v-7.37h5.75v11h-30.87v-3.35Z"/>
      <path class="cls-1" d="M118.24,115.04c-2.68,0-5.07-.5-7.17-1.51-2.1-1-3.89-2.4-5.36-4.19-1.47-1.79-2.59-3.91-3.35-6.36-.76-2.46-1.14-5.13-1.14-8.04,0-3.27.44-6.17,1.31-8.68.87-2.51,2.06-4.62,3.54-6.33,1.49-1.71,3.24-3,5.25-3.88,2.01-.87,4.13-1.31,6.36-1.31,2.42,0,4.32.42,5.69,1.26,1.38.84,2.33,1.74,2.85,2.71h.28v-3.29h5.75v12.11h-5.75v-2.64c0-1.91-.68-3.44-2.04-4.6-1.36-1.16-3.27-1.74-5.72-1.74-2.9,0-5.12.95-6.64,2.85-1.53,1.9-2.29,4.58-2.29,8.05v10.01c0,3.65.9,6.38,2.71,8.19,1.8,1.81,4.19,2.71,7.17,2.71,2.46,0,4.53-.64,6.22-1.93,1.69-1.28,2.97-2.99,3.82-5.11l2.85,1.62c-.45,1.34-1.09,2.61-1.93,3.82-.84,1.21-1.86,2.28-3.07,3.21-1.21.93-2.6,1.67-4.16,2.23-1.56.56-3.29.84-5.19.84Z"/>
      <path class="cls-1" d="M137.72,111.02h3.96v-32.26h-3.96v-3.35h15.74v3.35h-3.96v13.9h5.19l4.19-9.1c.74-1.67,1.48-3.08,2.2-4.21.73-1.13,1.46-2.05,2.2-2.73.74-.69,1.52-1.17,2.32-1.45.8-.28,1.67-.42,2.6-.42,1.53,0,2.73.44,3.6,1.31.87.88,1.31,1.98,1.31,3.32s-.39,2.48-1.17,3.32c-.78.84-1.82,1.26-3.13,1.26-1.15,0-2.06-.33-2.71-.98-.65-.65-1.05-1.44-1.2-2.37h-.17c-.41.52-.85,1.19-1.31,2.01-.47.82-.9,1.69-1.31,2.62l-3.91,8.48c1.53.15,2.78.58,3.77,1.28.99.71,1.93,1.94,2.82,3.68l6.75,12.34h3.57v3.35h-10.55l-9.88-18.2h-5.19v14.85h3.96v3.35h-15.74v-3.35Z"/>
      <path class="cls-1" d="M177.41,111.02h2.85l12.28-35.61h6.98l12.28,35.61h2.85v3.35h-15.46v-3.35h4.63l-2.9-8.76h-13.45l-2.9,8.76h4.63v3.35h-11.78v-3.35ZM188.46,98.74h11.44l-5.58-17.3h-.28l-5.58,17.3Z"/>
      <path class="cls-1" d="M217.93,111.02h3.96v-32.26h-3.96v-3.35h15.74v3.35h-3.96v13.84h16.3v-13.84h-3.96v-3.35h15.74v3.35h-3.96v32.26h3.96v3.35h-15.74v-3.35h3.96v-14.79h-16.3v14.79h3.96v3.35h-15.74v-3.35Z"/>
      <path class="cls-1" d="M262.8,111.02h3.96v-32.26h-3.96v-3.35h30.42v10.1h-5.75v-6.47h-12.89v13.28h8.48v-3.68h3.85v11h-3.85v-3.68h-8.48v14.79h13.34v-7.37h5.75v11h-30.87v-3.35Z"/>
      <path class="cls-1" d="M299.2,111.02h3.96v-32.26h-3.96v-3.35h20.54c3.94,0,6.9.89,8.88,2.68,1.97,1.79,2.96,4.43,2.96,7.93s-1.06,6.22-3.18,8.18c-2.12,1.95-5.13,2.93-9.04,2.93h-8.37v13.9h5.3v3.35h-17.08v-3.35ZM310.97,93.44h6.47c1.93,0,3.43-.5,4.49-1.51,1.06-1,1.59-2.44,1.59-4.3v-2.79c0-1.86-.53-3.29-1.59-4.3s-2.56-1.51-4.49-1.51h-6.47v14.4Z"/>
    </g>
  </g>
</svg>