<?xml version="1.0" encoding="UTF-8"?>
<svg id="Layer_2" xmlns="http://www.w3.org/2000/svg" viewBox="0 0 433.55 130.09">
  <defs>
    <style>
      .cls-1 {
        fill: #fff;
      }
    </style>
  </defs>
  <g id="Layer_3">
    <g>
      <path class="cls-1" d="M2.52,44.18h3.98V11.82h-3.98v-3.36h39.98v3.36h-3.98v32.37h3.98v3.36h-15.79v-3.36h3.98V12.1H14.34v32.09h3.98v3.36H2.52v-3.36Z"/>
      <path class="cls-1" d="M47.54,44.18h3.98V11.82h-3.98v-3.36h30.52v10.14h-5.77v-6.5h-12.94v13.33h8.51v-3.7h3.86v11.03h-3.86v-3.7h-8.51v14.84h13.38v-7.39h5.77v11.03h-30.97v-3.36Z"/>
      <path class="cls-1" d="M84.05,44.18h3.98V11.82h-3.98v-3.36h20.61c3.96,0,6.92.9,8.9,2.69,1.98,1.79,2.97,4.44,2.97,7.95s-1.06,6.24-3.19,8.2-5.15,2.94-9.07,2.94h-8.4v13.94h5.32v3.36h-17.14v-3.36ZM95.87,26.54h6.5c1.94,0,3.44-.5,4.51-1.51s1.6-2.45,1.6-4.31v-2.8c0-1.87-.53-3.3-1.6-4.31-1.06-1.01-2.57-1.51-4.51-1.51h-6.5v14.45Z"/>
      <path class="cls-1" d="M121.29,44.18h3.98V11.82h-3.98v-3.36h30.52v10.14h-5.77v-6.5h-12.94v13.33h8.51v-3.7h3.86v11.03h-3.86v-3.7h-8.51v14.84h13.38v-7.39h5.77v11.03h-30.97v-3.36Z"/>
      <path class="cls-1" d="M155.73,43.85h4.48c2.28-2.95,4.07-6.78,5.38-11.51,1.31-4.72,1.96-10.28,1.96-16.66v-3.86h-4.59v-3.36h29.9v3.36h-3.98v32.03h5.99v12.66h-6.22v-8.96h-26.71v8.96h-6.22v-12.66ZM181.05,43.9V12.1h-9.3v3.81c0,2.91-.15,5.73-.45,8.46-.3,2.73-.75,5.28-1.34,7.67-.6,2.39-1.32,4.59-2.16,6.61-.84,2.02-1.78,3.77-2.83,5.26h16.07Z"/>
      <path class="cls-1" d="M198.85,44.18h3.98V11.82h-3.98v-3.36h19.77c2.05,0,3.85.23,5.4.7,1.55.47,2.83,1.1,3.84,1.9,1.01.8,1.76,1.76,2.27,2.88.5,1.12.76,2.35.76,3.7s-.22,2.6-.67,3.64-1.05,1.94-1.82,2.69c-.77.75-1.63,1.35-2.6,1.82-.97.47-1.98.81-3.02,1.04v.28c1.08.11,2.2.38,3.36.81,1.16.43,2.2,1.04,3.14,1.82.93.78,1.7,1.75,2.3,2.91.6,1.16.9,2.5.9,4.03,0,3.44-1.07,6.1-3.22,8.01-2.15,1.9-5.26,2.86-9.32,2.86h-21.06v-3.36ZM210.67,25.65h6.27c1.94,0,3.41-.48,4.4-1.43s1.48-2.32,1.48-4.12v-2.46c0-1.79-.5-3.16-1.48-4.12-.99-.95-2.46-1.43-4.4-1.43h-6.27v13.55ZM210.67,43.9h7.22c2.09,0,3.7-.53,4.82-1.6,1.12-1.06,1.68-2.55,1.68-4.45v-2.52c0-1.9-.56-3.39-1.68-4.45-1.12-1.06-2.73-1.6-4.82-1.6h-7.22v14.62Z"/>
      <path class="cls-1" d="M237.72,44.18h3.98V11.82h-3.98v-3.36h15.62v3.36h-3.98v15.29l-.56,10.02h.22l17.19-24.08v-1.23h-3.98v-3.36h15.62v3.36h-3.98v32.37h3.98v3.36h-15.62v-3.36h3.98v-15.29l.56-10.02h-.22l-17.19,24.08v1.23h3.98v3.36h-15.62v-3.36Z"/>
      <path class="cls-1" d="M282.91,44.18h3.98V11.82h-3.98v-3.36h15.79v3.36h-3.98v13.89h16.35v-13.89h-3.98v-3.36h15.79v3.36h-3.98v32.37h3.98v3.36h-15.79v-3.36h3.98v-14.84h-16.35v14.84h3.98v3.36h-15.79v-3.36Z"/>
      <path class="cls-1" d="M327.93,44.18h3.98V11.82h-3.98v-3.36h15.85v3.36h-4.03v12.1h7.62c4.33,0,7.53,1,9.6,3,2.07,2,3.11,4.86,3.11,8.6,0,4-1.08,7-3.25,9.02-2.17,2.02-5.32,3.02-9.46,3.02h-19.43v-3.36ZM345.63,43.9c2.02,0,3.58-.54,4.7-1.62s1.68-2.69,1.68-4.82v-3.47c0-2.13-.56-3.73-1.68-4.82-1.12-1.08-2.69-1.62-4.7-1.62h-5.88v16.35h5.88Z"/>
      <path class="cls-1" d="M368.42,44.18h5.32V12.1h-8.06v6.5h-5.77v-10.14h35.45v10.14h-5.77v-6.5h-8.06v32.09h5.32v3.36h-18.42v-3.36Z"/>
      <path class="cls-1" d="M399.55,44.18h3.98V11.82h-3.98v-3.36h30.52v10.14h-5.77v-6.5h-12.94v13.33h8.51v-3.7h3.86v11.03h-3.86v-3.7h-8.51v14.84h13.38v-7.39h5.77v11.03h-30.97v-3.36Z"/>
      <path class="cls-1" d="M118.63,115.42c-2.69,0-5.09-.5-7.2-1.51-2.11-1.01-3.9-2.41-5.38-4.2-1.48-1.79-2.6-3.92-3.36-6.38-.77-2.46-1.15-5.15-1.15-8.06,0-3.28.44-6.19,1.32-8.71.88-2.52,2.06-4.64,3.56-6.36,1.49-1.72,3.25-3.01,5.26-3.89,2.02-.88,4.14-1.32,6.38-1.32,2.43,0,4.33.42,5.71,1.26,1.38.84,2.33,1.75,2.86,2.72h.28v-3.3h5.77v12.15h-5.77v-2.65c0-1.92-.68-3.46-2.04-4.62-1.36-1.16-3.28-1.75-5.74-1.75-2.91,0-5.13.95-6.66,2.86-1.53,1.91-2.3,4.6-2.3,8.08v10.04c0,3.67.9,6.41,2.72,8.22,1.81,1.81,4.21,2.72,7.2,2.72,2.46,0,4.54-.64,6.24-1.93,1.7-1.29,2.98-3,3.84-5.12l2.86,1.62c-.45,1.34-1.09,2.62-1.93,3.84-.84,1.21-1.87,2.29-3.08,3.22-1.21.93-2.6,1.68-4.17,2.24-1.57.56-3.3.84-5.21.84Z"/>
      <path class="cls-1" d="M138.18,111.38h3.98v-32.37h-3.98v-3.36h15.79v3.36h-3.98v13.94h5.21l4.2-9.13c.75-1.68,1.48-3.09,2.21-4.23s1.46-2.05,2.21-2.74c.75-.69,1.52-1.18,2.32-1.46.8-.28,1.67-.42,2.6-.42,1.53,0,2.73.44,3.61,1.32.88.88,1.32,1.99,1.32,3.33s-.39,2.49-1.18,3.33c-.78.84-1.83,1.26-3.14,1.26-1.16,0-2.06-.33-2.72-.98-.65-.65-1.06-1.45-1.2-2.38h-.17c-.41.52-.85,1.2-1.32,2.02-.47.82-.91,1.7-1.32,2.63l-3.92,8.51c1.53.15,2.79.58,3.78,1.29.99.71,1.93,1.94,2.83,3.7l6.78,12.38h3.58v3.36h-10.58l-9.91-18.26h-5.21v14.9h3.98v3.36h-15.79v-3.36Z"/>
      <path class="cls-1" d="M177.99,111.38h2.86l12.32-35.73h7l12.32,35.73h2.86v3.36h-15.51v-3.36h4.65l-2.91-8.79h-13.5l-2.91,8.79h4.65v3.36h-11.82v-3.36ZM189.08,99.06h11.48l-5.6-17.36h-.28l-5.6,17.36Z"/>
      <path class="cls-1" d="M218.65,111.38h3.98v-32.37h-3.98v-3.36h15.79v3.36h-3.98v13.89h16.35v-13.89h-3.98v-3.36h15.79v3.36h-3.97v32.37h3.97v3.36h-15.79v-3.36h3.98v-14.84h-16.35v14.84h3.98v3.36h-15.79v-3.36Z"/>
      <path class="cls-1" d="M263.67,111.38h3.98v-32.37h-3.98v-3.36h30.52v10.14h-5.77v-6.5h-12.94v13.33h8.51v-3.7h3.86v11.03h-3.86v-3.7h-8.51v14.84h13.38v-7.39h5.77v11.03h-30.97v-3.36Z"/>
      <path class="cls-1" d="M300.18,111.38h3.98v-32.37h-3.98v-3.36h20.61c3.96,0,6.92.9,8.9,2.69,1.98,1.79,2.97,4.44,2.97,7.95s-1.06,6.24-3.19,8.2-5.15,2.94-9.07,2.94h-8.4v13.94h5.32v3.36h-17.14v-3.36ZM312,93.74h6.5c1.94,0,3.44-.5,4.51-1.51,1.06-1.01,1.6-2.45,1.6-4.31v-2.8c0-1.87-.53-3.3-1.6-4.31-1.06-1.01-2.57-1.51-4.51-1.51h-6.5v14.45Z"/>
    </g>
  </g>
</svg>