<?xml version="1.0" encoding="UTF-8"?>
<svg id="Layer_2" xmlns="http://www.w3.org/2000/svg" viewBox="0 0 481.06 313.27">
  <defs>
    <style>
      .cls-1 {
        opacity: .2;
      }

      .cls-1, .cls-2 {
        fill: #fff;
      }

      .cls-3 {
        stroke-width: 9px;
      }

      .cls-3, .cls-4 {
        fill: none;
        stroke: #fff;
        stroke-linejoin: round;
      }

      .cls-4 {
        stroke-width: 13px;
      }
    </style>
  </defs>
  <g id="Layer_4">
    <g>
      <g>
        <rect class="cls-1" x="158.13" y="6.5" width="168.9" height="300.27"/>
        <rect class="cls-4" x="158.13" y="6.5" width="168.9" height="300.27"/>
        <polyline class="cls-3" points="157.33 299.62 137.72 299.62 137.72 13.64 157.33 13.64"/>
        <polyline class="cls-3" points="327.49 299.62 347.11 299.62 347.11 13.64 327.49 13.64"/>
      </g>
      <g>
        <path class="cls-2" d="M82.43,160.57H15.36l27.72-27.72c1.76-1.76,1.76-4.61,0-6.36-1.76-1.76-4.61-1.76-6.36,0L1.32,161.89s-.01.02-.02.03c-.2.2-.38.42-.54.66-.08.11-.13.24-.19.36-.07.14-.16.27-.22.42-.06.15-.1.31-.15.47-.04.12-.08.24-.11.37-.12.58-.12,1.18,0,1.76.03.13.07.25.11.37.05.16.08.32.15.47.06.15.14.28.22.42.07.12.12.24.19.36.16.24.34.46.54.66,0,0,.01.02.02.03l35.4,35.4c.88.88,2.03,1.32,3.18,1.32s2.3-.44,3.18-1.32c1.76-1.76,1.76-4.61,0-6.36l-27.72-27.72h67.07c2.49,0,4.5-2.01,4.5-4.5s-2.01-4.5-4.5-4.5Z"/>
        <path class="cls-2" d="M480.31,167.56c.07-.11.12-.23.19-.34.08-.14.16-.28.23-.43.06-.15.1-.3.14-.46.04-.13.09-.25.11-.38.12-.58.12-1.18,0-1.76-.03-.13-.08-.26-.11-.38-.04-.15-.08-.31-.14-.46-.06-.15-.15-.29-.23-.43-.06-.11-.11-.23-.19-.34-.17-.25-.35-.48-.56-.69l-35.4-35.4c-1.76-1.76-4.61-1.76-6.36,0-1.76,1.76-1.76,4.61,0,6.36l27.72,27.72h-67.07c-2.49,0-4.5,2.01-4.5,4.5s2.01,4.5,4.5,4.5h67.07l-27.72,27.72c-1.76,1.76-1.76,4.61,0,6.36.88.88,2.03,1.32,3.18,1.32s2.3-.44,3.18-1.32l35.4-35.4c.21-.21.4-.44.56-.69Z"/>
      </g>
    </g>
  </g>
</svg>